<svg width="360" height="12" viewBox="0 0 360 12" fill="none" xmlns="http://www.w3.org/2000/svg">
<mask id="mask0_480_7357" style="mask-type:alpha" maskUnits="userSpaceOnUse" x="0" y="0" width="360" height="12">
<rect width="360" height="11.2208" fill="#C4C4C4"/>
</mask>
<g mask="url(#mask0_480_7357)">
<path d="M54.0737 -2.37342L54.9535 -2.52132L53.2414 -2.73337L54.0621 -2.88859C54.8851 -2.88717 55.9514 -2.65459 56.5317 -2.77817C56.6026 -2.89782 55.7064 -2.93623 55.4777 -3.03156C55.2754 -3.12927 55.1102 -3.22635 54.9842 -3.32163C55.4324 -3.3206 55.9252 -3.29755 56.4333 -3.25384C57.1166 -3.18245 57.7869 -3.14775 58.3701 -3.15356C59.5628 -3.13428 60.715 -3.15352 62.0117 -3.14928L61.5803 -3.43724L63.2514 -3.36988C63.4285 -3.34794 63.6396 -3.38322 63.8136 -3.35608C65.2619 -3.12645 65.8747 -3.25158 66.5699 -3.35534C66.7125 -3.38218 66.8842 -3.40223 67.0806 -3.41495C69.0125 -3.35994 70.7547 -3.03807 72.4946 -2.87284C72.8221 -2.83065 73.1362 -2.7765 73.4146 -2.71422C74.0198 -2.59315 74.6929 -2.4943 75.3725 -2.42672C76.0521 -2.35913 76.7163 -2.32498 77.3046 -2.32736C78.6054 -2.33004 80.0751 -2.24996 81.5713 -2.09487C82.0163 -2.04379 82.4615 -2.01009 82.8787 -1.99593C83.2959 -1.98176 83.6758 -1.98743 83.9942 -2.01258L85.0058 -1.8482C85.4443 -1.9149 86.0003 -1.9515 86.6402 -1.95577C87.28 -1.96004 87.9902 -1.93189 88.7278 -1.87303C89.5139 -1.80919 90.3122 -1.76615 91.1278 -1.69865C92.8124 -1.5696 94.4519 -1.49068 95.9954 -1.46433C98.294 -1.38626 100.54 -1.3259 102.859 -1.22856C104.309 -1.18158 105.723 -1.15574 107.09 -1.15118C108.729 -1.1328 110.501 -1.04384 112.322 -0.888585C112.235 -0.742921 111.437 -0.785954 110.901 -0.790884C109.173 -0.815094 107.404 -0.877831 105.625 -0.924961C104.824 -0.943357 104.045 -0.950325 103.293 -0.945813C102.035 -0.951852 100.709 -0.990665 99.3374 -1.06159C97.1707 -1.13963 95.0732 -1.17714 93.0664 -1.17375C92.9092 -1.16798 92.765 -1.15775 92.6364 -1.14324C92.6096 -1.13068 92.6043 -1.11483 92.621 -1.09723C92.6378 -1.07963 92.676 -1.06085 92.732 -1.0427C92.7881 -1.02455 92.86 -1.00765 92.941 -0.993589C93.022 -0.97953 93.1094 -0.968792 93.1947 -0.962411C93.9918 -0.863695 94.8478 -0.75767 95.5995 -0.742755C95.6285 -0.74164 95.6595 -0.739095 95.6901 -0.735302C95.7208 -0.731507 95.7503 -0.72656 95.7766 -0.720819C97.4592 -0.512418 98.8427 -0.547685 100.153 -0.513779C102.33 -0.422142 104.427 -0.379338 106.415 -0.386015C106.716 -0.385561 107.04 -0.373648 107.377 -0.350707C109.458 -0.257717 111.405 -0.247315 113.125 -0.319977C113.833 -0.338384 114.492 -0.37971 115.252 -0.380401C115.721 -0.383245 116.129 -0.409616 116.452 -0.457935C116.774 -0.506255 117.005 -0.575525 117.13 -0.661576C117.451 -0.616271 117.777 -0.575894 118.104 -0.540928C118.3 -0.520936 118.487 -0.515626 118.629 -0.526088C118.77 -0.536549 118.855 -0.562001 118.867 -0.597295C118.925 -0.696138 118.479 -0.745777 118.092 -0.788104C118.326 -0.809303 118.589 -0.821774 118.875 -0.825216C120.487 -0.847802 122.216 -0.821144 124.025 -0.745831C125.429 -0.655681 126.55 -0.729057 128.027 -0.601928C128.204 -0.579992 128.35 -0.61219 128.513 -0.61992C128.938 -0.660632 129.467 -0.669782 130.056 -0.646572C130.644 -0.623361 131.273 -0.56849 131.888 -0.486717C132.654 -0.710124 134.309 -0.454901 135.531 -0.431964C135.907 -0.31835 135.475 -0.338325 135.457 -0.30711C135.438 -0.275897 135.457 -0.307117 135.309 -0.325397C134.089 -0.164501 132.417 -0.129417 130.529 -0.225076C130.179 -0.224679 129.846 -0.21735 129.533 -0.203158C129.059 -0.183071 128.524 -0.185076 127.952 -0.209087C127.328 -0.226722 126.754 -0.218346 126.258 -0.184366C125.973 -0.184919 125.732 -0.167896 125.558 -0.134864C125.383 -0.101832 125.28 -0.0538614 125.259 0.00458913C125.449 0.0496484 125.661 0.0908794 125.884 0.126644C127.051 0.267856 128.214 0.326307 129.146 0.290497C130.767 0.228797 132.695 0.289007 134.419 0.267944C135.584 0.25941 136.824 0.283715 138.115 0.340407C138.115 0.340407 138.081 0.397631 138.078 0.402834C138.231 0.42761 138.391 0.44749 138.551 0.461334C138.551 0.461334 138.551 0.461334 138.566 0.435323C138.495 0.410343 138.399 0.386845 138.289 0.367546L137.905 0.320015C138.166 0.307646 138.41 0.270818 138.682 0.293319C139.255 0.335123 139.802 0.352772 140.291 0.345216C140.78 0.33766 141.201 0.305051 141.528 0.249349C142.108 0.177961 142.828 0.145495 143.644 0.154051C144.269 0.146257 144.871 0.129506 145.448 0.103881C145.448 0.103881 145.485 0.0414603 145.758 0.00828102C145.5 -0.0326402 145.23 -0.0660543 144.961 -0.090431C143.793 -0.151331 142.622 -0.207029 141.475 -0.248666C141.052 -0.253163 140.654 -0.246187 140.29 -0.227872C139.28 -0.206442 138.145 -0.236858 136.952 -0.31735C136.952 -0.31735 136.716 -0.346597 136.598 -0.361222C136.933 -0.498446 138.087 -0.361068 138.554 -0.453999C138.838 -0.452309 139.339 -0.440623 139.321 -0.465087C139.282 -0.497734 139.278 -0.528064 139.308 -0.553899C139.338 -0.579734 139.402 -0.600437 139.495 -0.614519C139.588 -0.628602 139.708 -0.635723 139.847 -0.63536C139.985 -0.634998 140.139 -0.627163 140.296 -0.612425C141.61 -0.532698 142.848 -0.510527 143.933 -0.54727C144.345 -0.546559 144.806 -0.522931 145.214 -0.517018C145.464 -0.509898 145.693 -0.513858 145.887 -0.52868C146.873 -0.637842 148.201 -0.645814 149.671 -0.5514C150.381 -0.517453 151.045 -0.512916 151.627 -0.538013C152.042 -0.542507 152.218 -0.464894 152.513 -0.428333L153.767 -0.35126L152.157 -0.254689C152.501 -0.0333722 152.774 0.0396019 153.337 0.0533903C154.157 0.0742113 154.955 0.083618 155.728 0.0815518C156.3 0.0797316 156.771 0.0320715 157.545 0.116726C157.682 0.130533 157.813 0.135002 157.918 0.129382C158.824 0.0542287 159.915 0.0369804 161.116 0.0788168C161.739 -0.0619183 162.798 0.0749129 163.779 0.18516C164.095 0.0791494 163.522 0.0304886 163.18 -0.0341943C164 -0.0275749 164.826 -0.0313544 165.672 -0.0158751C165.927 -0.0215105 166.218 -0.0118705 166.522 0.012285C166.827 0.0364401 167.137 0.07445 167.427 0.123344C167.569 0.154938 167.74 0.178713 167.905 0.189737C168.069 0.200763 168.215 0.19819 168.311 0.182556C168.751 0.136444 169.454 0.178915 169.817 0.101025C169.946 0.0831121 170.131 0.0806119 170.338 0.0939615C170.545 0.107309 170.76 0.135645 170.947 0.173884C170.743 0.185817 170.561 0.204605 170.406 0.229836C169.851 0.311799 170.055 0.448752 170.761 0.647856C171.845 0.636906 172.952 0.640017 173.956 0.602492C174.516 0.568805 175.202 0.579336 175.937 0.632899C176.673 0.686463 177.428 0.780937 178.118 0.905695C178.367 0.95367 178.652 0.986895 178.915 0.998779C179.178 1.01066 179.4 1.00033 179.537 0.96983C179.623 0.934555 179.649 0.889913 179.614 0.839773L178.906 0.752029C178.906 0.752029 178.934 0.705208 178.94 0.694803L179.958 0.686935C180.497 0.686663 181.059 0.700455 181.569 0.696525C182.317 0.670395 183.171 0.68496 184.078 0.739315C184.915 0.795051 185.738 0.837178 186.539 0.865329C187.314 0.894306 187.875 0.801931 188.613 0.78718C189.171 0.776061 189.784 0.787943 190.43 0.822365C191.546 0.883414 192.569 0.883528 193.408 0.822693C194.386 1.15046 194.862 1.20375 195.77 1.11518L196.197 1.08988L196.314 1.16018L196.64 1.14472C197.25 1.13095 197.86 1.11719 198.497 1.11228C199.382 1.1427 200.338 1.22453 201.271 1.34979C201.448 1.37173 201.689 1.44626 201.845 1.50461C202 1.56297 202.34 1.739 202.589 1.8536C202.317 1.93725 202.016 2.01725 201.801 2.11342C201.779 2.12985 201.781 2.14944 201.807 2.17062C201.833 2.1918 201.881 2.21397 201.949 2.23536C202.016 2.25675 202.101 2.27675 202.195 2.29377C202.29 2.31078 202.393 2.32434 202.494 2.33334C202.693 2.35273 202.889 2.36566 203.074 2.37159C203.986 2.38182 204.859 2.37422 205.686 2.34886C205.987 2.31308 206.4 2.30968 206.859 2.3392C207.318 2.36873 207.797 2.42949 208.219 2.51185C209.3 2.4624 210.556 2.47701 211.901 2.55465C213.323 2.50743 215.041 2.60293 216.37 2.49946C216.339 2.55149 216.476 2.64106 216.667 2.69266C216.97 2.77104 217.312 2.84369 217.681 2.90751L220.49 3.03213C220.595 3.09621 220.727 3.16108 220.883 3.22589C220.989 3.27709 221.175 3.32718 221.401 3.36556C221.627 3.40394 221.874 3.42758 222.092 3.43148C222.651 3.45047 223.119 3.40801 223.786 3.51291C222.76 3.61207 221.375 3.5989 219.879 3.47573C218.474 3.38206 217.122 3.33525 215.873 3.33703C215.462 3.33632 214.92 3.34179 214.791 3.39845C214.506 3.5586 213.761 3.53328 212.891 3.50374C212.208 3.47141 211.584 3.47503 211.07 3.51433C210.557 3.55363 210.168 3.62747 209.937 3.72978C209.878 3.82862 210.019 3.91299 210.618 3.97051L213.112 4.20114C213.479 4.17149 213.828 4.13639 214.156 4.09599C214.71 4.04233 215.393 4.0276 216.153 4.05294C216.912 4.07829 217.729 4.14304 218.537 4.24214C218.951 4.29333 219.364 4.34451 219.664 4.32019C219.927 4.29226 220.169 4.25881 220.388 4.22009C220.433 4.19415 220.45 4.16428 220.441 4.13165C220.6 4.14683 220.759 4.16655 220.913 4.19015C222.144 4.46547 223.098 4.46071 223.964 4.38929C224.198 4.36807 224.377 4.33433 224.614 4.3079C224.852 4.28147 224.935 4.24716 225.151 4.25715C226.872 4.34744 227.368 4.04585 228.818 4.05797C228.889 4.04619 228.933 4.02857 228.946 4.00675C228.959 3.98493 228.94 3.95961 228.892 3.93311C228.79 3.90919 228.671 3.88861 228.547 3.87328C228.424 3.85794 228.298 3.84835 228.184 3.84537C227.516 3.80667 226.927 3.81853 226.516 3.87894C226.225 3.90363 225.917 3.92329 225.594 3.93784L224.142 3.5011C225.549 3.54113 226.879 3.54087 228.103 3.50032C228.37 3.47754 228.822 3.51678 229.198 3.52424L231.962 3.56506C232.53 3.56844 233.015 3.49998 233.807 3.65957C233.807 3.65957 234.331 3.68531 234.47 3.66352C234.61 3.64173 235.229 3.50619 235.598 3.4179C236.027 3.44307 236.62 3.511 236.887 3.48823C237.354 3.43229 237.758 3.36058 238.091 3.27439L239.761 3.39744C239.759 3.50674 239.698 3.60958 239.579 3.70437C239.449 3.79579 239.454 3.90553 239.592 4.02462C239.731 4.1437 240 4.26875 240.377 4.38955L242.026 5.02932C242.295 5.07217 242.582 5.101 242.848 5.11192C243.113 5.12285 243.345 5.11532 243.511 5.09036C244.22 5.01627 245.015 4.95836 245.725 4.88427C246.64 4.99761 246.404 5.18068 247.07 5.34126L249.225 5.60815C249.553 5.85548 249.888 6.0924 248.889 6.1752C248.69 6.18968 248.824 6.28445 248.642 6.3234C249.42 6.509 250.274 6.56456 251.062 6.67888C251.372 6.7611 251.632 6.84813 251.828 6.93577C252.044 7.06773 252.481 7.20253 253.045 7.31105C253.609 7.41958 254.255 7.49312 254.843 7.51581C255.83 7.58529 256.841 7.68964 257.829 7.8242C258.167 7.87099 258.514 7.90508 258.847 7.92417C259.18 7.94326 259.492 7.94691 259.76 7.93488C260.717 7.9137 261.526 7.84084 262.137 7.72106C262.74 7.61941 263.553 7.57042 264.502 7.57852C266.126 7.77961 266.454 8.08262 267.436 8.3495L265.739 8.37942C265.677 8.48347 265.79 8.61465 265.094 8.61225C264.398 8.60985 264.751 8.7094 264.977 8.80994C265.056 8.86051 265.211 8.91253 265.416 8.9572C265.62 9.00186 265.862 9.03642 266.099 9.05503L267.544 9.18371C268.056 9.23268 268.552 9.25359 268.977 9.24414C269.402 9.2347 269.739 9.19527 269.952 9.13017C270.197 9.06836 270.534 9.02655 270.944 9.0073C271.466 8.95688 271.895 8.88189 272.216 8.78516L274.256 8.92609C274.342 8.82889 274.623 8.76074 275.049 8.73315C275.475 8.70557 276.021 8.72024 276.595 8.77469L277.97 8.86119C279.498 8.95556 279.834 8.92449 280.281 8.65046L278.448 8.16099C278.715 8.03206 278.972 7.91873 279.229 7.80541C278.773 7.64415 278.163 7.49163 277.463 7.36333C276.81 7.22547 276.138 7.09195 275.451 6.96328C274.705 6.83181 273.917 6.71748 272.991 6.56927C272.829 6.52132 272.594 6.43639 272.294 6.35456C271.994 6.27503 271.68 6.19708 271.355 6.121C271.417 6.01695 271.472 5.92331 271.354 5.80253C271.924 5.84107 272.513 5.90848 273.068 5.99866C273.624 6.08886 274.127 6.199 274.533 6.31916C274.601 6.34047 274.685 6.36049 274.779 6.37786C274.872 6.39523 274.974 6.40955 275.076 6.41984C276.077 6.49367 276.556 6.64792 277.046 6.83704C277.376 6.93371 277.802 7.01957 278.263 7.08269C279.149 7.19237 280.016 7.33328 280.863 7.45491C281.122 7.49544 281.391 7.52881 281.66 7.55362C282.545 7.63253 283.436 7.74287 284.287 7.87903C284.565 7.91363 284.832 7.95942 285.065 8.01258C285.298 8.06574 285.491 8.12471 285.627 8.18457C285.416 8.25016 285.303 8.33295 285.293 8.42795C285.256 8.49038 285.877 8.61764 286.171 8.70988C286.465 8.80212 285.889 8.75866 285.693 8.76794C284.891 8.78578 284.742 8.82318 285.222 9.02791C285.383 9.09228 285.489 9.15669 285.535 9.21714C285.581 9.27758 285.566 9.33277 285.489 9.37929C285.375 9.57177 285.028 9.72981 284.79 9.91807C285.16 10.0421 285.779 10.1745 285.846 10.3281C285.878 10.3621 285.947 10.3982 286.046 10.4337C286.146 10.4692 286.274 10.5033 286.421 10.5334C286.81 10.5983 287.163 10.6761 287.454 10.7605C287.745 10.8449 287.965 10.9337 288.098 11.0202C288.141 11.0559 288.246 11.0938 288.391 11.1263C288.536 11.1588 288.711 11.1835 288.881 11.1954C289.084 11.21 289.265 11.2081 289.388 11.19C289.511 11.1719 289.565 11.1391 289.54 11.0984C289.545 11.0218 289.519 10.9419 289.46 10.8595C289.494 10.8023 289.528 10.745 289.394 10.6503C289.999 10.6848 290.634 10.7542 291.231 10.8507C291.827 10.9472 292.362 11.0672 292.777 11.1977C293.236 11.3327 293.659 11.4744 294.167 11.6323C294.062 11.8092 294.062 11.8092 295.145 12.1219L300.885 12.2744L302.061 12.4815C303.158 12.6621 303.419 12.6497 304.108 12.5564L304.572 12.4686C305.546 12.5893 306.668 12.7282 307.277 12.5021C307.475 12.6495 307.604 12.699 307.559 12.7214C307.268 12.9388 306.763 13.1233 306.063 13.2676C305.885 13.3013 305.759 13.3528 305.551 13.3829C304.881 13.5527 304.725 13.8151 305.116 14.1164C305.311 14.2497 305.593 14.3863 305.953 14.5216C305.425 14.7094 304.726 14.865 303.873 14.9843C303.15 15.0766 302.554 15.2001 302.103 15.3514C301.698 15.5039 301.092 15.6186 300.319 15.6888C299.926 15.7187 299.64 15.7776 299.489 15.8596C299.443 16.0818 299.547 16.3197 299.798 16.568C299.845 16.6436 299.979 16.7252 300.189 16.8064C300.399 16.8877 300.68 16.9664 301.009 17.0364C301.009 17.0364 301.168 17.0895 301.244 17.1213C301.308 17.3904 301.07 17.6275 300.547 17.8167C300.461 17.8704 300.286 17.9092 300.04 17.9289C299.793 17.9486 299.486 17.9484 299.15 17.9285C298.44 17.8964 297.777 17.8925 297.09 17.8745C296.351 17.849 295.699 17.8691 295.204 17.9326C294.709 17.9961 294.389 18.1007 294.278 18.2353C294.271 18.2735 294.249 18.31 294.213 18.3446C294.192 18.3624 294.181 18.3816 294.179 18.4018L295.756 18.8428L293.972 19.0183C293.868 19.1952 294.724 19.3013 295.153 19.4326L294.888 19.5058C294.546 19.5473 294.086 19.468 293.67 19.422L293.257 19.3708L293.207 19.4541C292.95 19.5674 292.012 19.44 291.645 19.5231C291.279 19.6062 291.541 19.7 292.089 19.7902C292.471 19.8573 292.88 19.9108 293.287 19.9467C293.694 19.9826 294.087 19.9999 294.438 19.9974C294.647 19.9885 294.821 19.9682 294.949 19.9378C295.689 19.8082 296.507 19.6967 297.396 19.6043C298.078 19.5213 298.931 19.486 299.897 19.5009C300.181 19.4946 300.522 19.5143 300.862 19.5564C301.203 19.5985 301.519 19.6604 301.757 19.7312L302.257 19.7429C302.257 19.7429 302.531 19.8158 302.492 19.8278C302.302 20.044 302.523 20.3083 303.123 20.5816L302.601 20.6063C301.855 20.581 302.328 20.7457 302.217 20.8268C301.687 20.8114 300.999 20.743 300.748 20.8459L300.372 20.8384L300.52 20.8567L300.698 20.823L301.399 20.9768C301.067 21.0027 300.826 21.0343 300.533 21.0482C300.371 21.0603 300.242 21.0817 300.154 21.1111C300.065 21.1405 300.02 21.1772 300.02 21.2192C300.02 21.2837 299.933 21.338 299.766 21.3769C299.598 21.4159 299.357 21.4381 299.064 21.4415C298.715 21.4428 298.515 21.513 298.31 21.5379L299.2 21.9608C299.2 21.9608 298.757 21.906 298.998 21.9805L299.029 21.9285L299.568 22.0344C299.957 22.1272 300.229 22.1497 300.458 22.0832C300.688 22.0167 300.635 22.1051 300.745 22.0797C300.705 22.1473 300.456 22.1946 300.241 22.235C299.994 22.2668 299.714 22.2903 299.408 22.3049C299.96 22.6023 299.987 22.6112 299.18 22.6899C298.373 22.7686 298.651 22.8869 297.976 22.9037C297.3 22.9206 298.068 23.1218 298.52 23.161C298.855 23.1868 299.197 23.227 299.522 23.2788C299.847 23.3306 300.147 23.3928 300.402 23.4611L300.266 23.69C300.068 23.6711 299.868 23.6464 299.676 23.6169C299.022 23.4912 298.426 23.3728 297.844 23.4459L298.122 23.6198L296.09 23.519C296.143 23.6493 296.452 23.7978 296.954 23.9331C296.878 24.0074 296.832 24.0856 296.815 24.1672C296.781 24.2244 296.58 24.1884 296.45 24.1946C295.985 24.2041 295.603 24.2429 295.338 24.3075C295.073 24.3721 294.934 24.4605 294.931 24.5649C294.879 24.6533 295.594 24.8368 296.041 24.8308C297.158 24.8484 298.365 24.9165 299.598 25.0312C300.35 25.0461 300.456 24.8136 301.693 24.9723C301.717 25.0797 301.559 25.1667 301.241 25.22C300.924 25.2734 300.465 25.2903 299.933 25.2681C300.235 25.5066 301.91 25.5688 301.984 25.8181C301.567 25.8005 301.121 25.759 300.69 25.6979C300.26 25.6367 299.859 25.5579 299.529 25.4693C299.457 25.4475 299.368 25.4274 299.268 25.4108C299.169 25.3943 299.062 25.3818 298.959 25.3746C298.856 25.3674 298.759 25.3657 298.678 25.3696C298.597 25.3735 298.533 25.3829 298.494 25.397C298.726 25.4872 298.981 25.5914 299.272 25.6888C299.563 25.7863 299.633 25.8284 299.842 25.8488C301.407 26.0426 302.151 26.3916 303.504 26.6207C303.859 26.6645 303.903 26.804 303.595 26.7883C303.303 26.7725 303.038 26.7745 302.83 26.7942C302.623 26.8139 302.481 26.8504 302.42 26.8996C302.193 26.957 301.91 27.0027 301.579 27.0356C302.967 27.3937 304.622 27.7101 306.389 27.9552C306.724 28.0036 307.073 28.0331 307.385 28.0394C308.371 28.0398 309.418 28.0682 310.503 28.1241C310.888 28.1394 311.244 28.1379 311.551 28.1199C312.559 28.0772 313.359 28.1707 314.09 28.4343L315.3 28.8522C315.26 28.9198 315.057 28.9952 314.901 29.0987L315.846 29.3218L323.058 28.8079L324.506 29.3055L326.582 29.2779C326.741 29.2922 326.901 29.312 327.054 29.3364C327.474 29.4833 327.802 29.6245 328.258 29.7647C328.714 29.9048 329.527 29.9219 330.095 30.0871C330.662 30.2523 331.231 30.2557 331.933 30.3538C331.999 30.4817 331.931 30.5968 331.733 30.692C331.668 30.8012 331.311 30.8687 331.249 30.9728C331.256 31.0779 331.124 31.1672 330.864 31.2325C330.604 31.2978 330.224 31.3371 329.76 31.3467C328.461 31.5706 326.894 31.7301 325.107 31.8202C324.95 31.8268 324.82 31.8419 324.724 31.8647C324.629 31.8875 324.571 31.9174 324.553 31.9527C324.556 32.0547 324.436 32.1429 324.204 32.2108C323.972 32.2787 323.633 32.3245 323.212 32.3449C323.099 32.349 323.015 32.3618 322.968 32.3818C322.808 32.3946 322.692 32.4192 322.63 32.4532C322.568 32.4871 322.563 32.5293 322.615 32.5757C322.667 32.622 322.775 32.6709 322.928 32.7176C323.081 32.7644 323.273 32.8074 323.487 32.8425C323.797 32.8991 324.114 32.9533 324.437 33.0048C324.418 33.036 324.098 33.0411 324.145 33.0692C324.271 33.159 324.3 33.2431 324.23 33.3148C324.16 33.3866 323.993 33.4441 323.741 33.4827L325.465 34.2099C326.511 34.3107 327.538 34.4815 328.349 34.69C328.35 34.7242 328.304 34.7528 328.214 34.773C328.124 34.7932 327.994 34.8044 327.837 34.8053C327.417 34.8202 327.019 34.8491 326.566 34.8656C326.289 34.8779 326.058 34.9049 325.887 34.9451C325.717 34.9853 325.609 35.0379 325.571 35.0998L326.584 35.3703C326.259 35.4363 326.019 35.4679 325.805 35.5084C325.926 35.5934 326.135 35.6814 326.414 35.7654C326.694 35.8495 327.038 35.9274 327.419 35.9931C327.521 36.0067 327.625 36.0166 327.725 36.0222C327.825 36.0279 327.919 36.0292 328.001 36.0261C328.785 35.9334 329.702 36.0972 330.592 36.2521C331.483 36.4071 331.966 36.5005 332.623 36.621L333.881 36.6372C334.2 36.6942 334.484 36.7613 334.711 36.8331C334.938 36.9048 335.102 36.9793 335.189 37.0504C335.121 37.1649 334.525 37.1021 334.169 37.1139C333.325 37.1852 332.216 37.17 331.026 37.0709C330.731 37.0343 330.428 37.0638 330.141 37.0674C329.521 37.0816 328.925 37.1048 328.357 37.1368C327.982 37.1666 327.632 37.2034 327.309 37.2471C327.223 37.3928 328.582 37.5053 327.811 37.5773C328.076 37.6102 328.176 37.656 328.312 37.6394C329.187 37.734 330.05 37.7808 330.799 37.7743C332.237 37.7542 333.87 37.8206 335.564 37.968C337.393 38.1207 339.147 38.1848 340.682 38.1551C341.266 38.1533 341.92 38.1846 342.592 38.2465C343.386 38.3322 344.175 38.3862 344.906 38.4047C345.149 38.4054 345.419 38.42 345.694 38.4473C345.97 38.4747 346.243 38.514 346.493 38.5621C346.471 38.5985 346.234 38.6249 346.286 38.6426C347.044 38.9152 347.351 39.1989 348.517 39.4773C349.314 39.576 350.229 39.6894 350.75 39.5585C351.271 39.4276 351.085 39.3151 350.047 38.98C350.272 38.9752 350.544 38.9908 350.813 39.0243C351.083 39.0577 351.334 39.1067 351.523 39.1628L352.42 39.4135L353.229 39.6533C353.158 39.7729 353.102 39.8666 353.044 39.9654C352.951 40.0704 353.053 40.1982 353.334 40.3308C353.504 40.4033 353.652 40.4757 353.776 40.5475C354.282 40.8347 354.428 41.1061 354.199 41.3314C353.76 41.6553 353.149 41.9533 352.372 42.2219C351.552 42.4833 351.103 42.813 350.427 43.0979C350.082 43.2276 349.664 43.3438 349.175 43.4454C348.249 43.6714 347.235 43.8863 346.305 44.1175C345.376 44.3486 344.327 44.5146 343.295 44.7051C341.759 44.9312 340.098 45.1265 338.323 45.2898C337.224 45.4329 336.095 45.5724 335.079 45.7369C333.879 45.9223 332.468 46.0555 330.883 46.1331C329.484 46.2259 328.233 46.3633 327.155 46.5424C327.042 46.5618 326.953 46.5865 326.89 46.6157C326.696 46.7984 326.152 46.9272 325.342 46.9824C325.391 47.0359 325.454 47.0902 325.53 47.1453C325.643 47.2109 325.666 47.2724 325.598 47.3216C325.529 47.3708 325.371 47.4056 325.145 47.4215C324.497 47.4667 323.958 47.5436 323.553 47.6486C323.404 47.675 323.312 47.7134 323.284 47.7605C323.256 47.8076 323.293 47.8621 323.392 47.9192C323.48 47.9779 323.487 48.032 323.411 48.0744C323.335 48.1167 323.18 48.1454 322.966 48.1568C322.418 48.2124 321.83 48.2572 321.208 48.2908C319.883 48.3648 318.342 48.364 316.678 48.2882C316.501 48.2662 316.322 48.3 316.116 48.2744C314.939 48.1894 313.846 48.1763 312.97 48.2365C311.942 48.26 310.867 48.2553 309.783 48.2663C308.217 48.2589 306.773 48.3036 305.49 48.3991C304.024 48.3068 303.2 48.4672 301.962 48.4703C300.82 48.4868 299.737 48.5263 298.724 48.5885C297.09 48.671 295.463 48.7431 293.853 48.8397C292.343 48.8857 290.953 48.9737 289.705 49.1021C289.227 49.1602 288.362 49.0698 288.036 49.1914C287.711 49.313 287.054 49.2986 286.523 49.339L284.848 49.4386C284.56 49.4623 284.243 49.4774 283.902 49.4835C282.345 49.4916 281.266 49.654 279.821 49.6872L279.673 49.6689C277.106 49.9103 274.169 50.0428 270.948 50.0624C269.066 50.1365 267.008 50.1329 265.012 50.1872C264.535 50.2957 263.411 50.162 262.813 50.2611C262.216 50.3602 261.24 50.2952 260.47 50.3116C259.7 50.3278 258.947 50.3686 258.124 50.3672C257.409 50.3677 256.806 50.4119 256.368 50.496C255.37 50.6349 254.153 50.7166 252.771 50.7373C250.944 50.7734 249.216 50.8554 247.357 50.8374C247.384 50.9386 247.27 51.0247 247.027 51.0869C246.784 51.1491 246.421 51.185 245.975 51.1911C243.987 51.2297 242.185 51.3304 240.171 51.3601L239.632 51.3604L233.609 51.4185C231.986 51.4298 230.423 51.4483 228.767 51.4611C228.148 51.3843 228.133 51.5164 227.704 51.4913C227.584 51.4262 227.443 51.3975 227.231 51.4328L227.185 51.5108L220.311 51.6143C217.62 51.69 214.789 51.7127 211.842 51.6822C211.143 51.6899 210.491 51.7158 209.895 51.7594C209.343 51.7753 208.768 51.7824 208.172 51.7805C207.366 51.7608 206.578 51.7509 205.813 51.7508C203.799 51.7805 201.685 51.7645 199.48 51.7427C197.275 51.7208 195.604 51.7596 193.642 51.7566C192.312 51.7539 190.989 51.7408 189.613 51.71C188.956 51.6957 188.147 51.6178 187.467 51.5894C186.786 51.5609 186.564 51.5614 186.474 51.6061C186.178 51.7313 185.434 51.6503 184.839 51.6381C183.679 51.6173 183.515 51.5745 183.199 51.2507L184.623 51.1478C184.972 51.1146 185.411 51.1088 185.897 51.1309C186.383 51.153 186.901 51.2023 187.4 51.274C187.596 51.3047 187.802 51.329 188.004 51.3455C188.206 51.3619 188.402 51.3701 188.579 51.3697C190.015 51.3522 191.431 51.3154 192.812 51.2853L193.014 51.2656L193.026 50.9768C192.844 50.9485 192.654 50.925 192.465 50.9074L185.542 50.72C183.953 50.674 182.304 50.5702 180.744 50.5278C179.185 50.4855 178.345 50.4596 177.135 50.4159C176.624 50.3909 176.104 50.3582 175.577 50.3178C175.608 50.29 175.625 50.2604 175.63 50.2294C175.657 50.1826 175.694 50.1201 175.47 50.0701C175.226 49.9994 174.9 49.9391 174.557 49.9011C174.234 49.876 173.921 49.8618 173.631 49.859C172.227 49.8348 170.623 49.6823 169.162 49.4339L168.651 49.5997C166.457 49.5065 164.23 49.415 161.937 49.3265C161.478 49.3024 160.996 49.2561 160.528 49.1911C160.026 49.1289 159.565 48.9991 159.036 48.9281C158.514 48.877 157.996 48.8372 157.491 48.8093C157.627 48.7666 157.808 48.7325 158.026 48.7081C158.241 48.6995 158.397 48.6728 158.473 48.632C158.548 48.5911 158.539 48.5382 158.446 48.4809C158.282 48.3824 158.211 48.2898 158.566 48.278C158.895 48.2555 159.13 48.2069 159.243 48.1379C159.357 48.0689 159.345 47.9824 159.209 47.8885C159.149 47.8336 159.107 47.7799 159.082 47.7277L158.935 47.7094C158.448 47.5151 157.475 47.4449 156.778 47.2859C156.448 47.2397 156.107 47.2132 155.808 47.2105C155.036 47.1763 154.285 47.1614 153.486 47.1183C153.105 47.0985 152.706 47.0624 152.313 47.0122C151.752 46.9427 151.693 46.9354 151.368 46.6829C151.874 46.6873 152.274 46.6495 152.503 46.5761C152.731 46.5026 152.773 46.3979 152.621 46.2796C152.204 46.0213 151.763 45.749 149.875 45.5655C150.491 45.5564 151.083 45.5384 151.65 45.5116C151.815 45.5059 151.938 45.4869 152.004 45.4572C152.069 45.4276 152.074 45.3887 152.017 45.3458C151.959 45.3029 151.843 45.258 151.683 45.2171C151.524 45.1762 151.329 45.1412 151.123 45.1169C150.127 44.9708 149.088 44.873 148.122 44.8346C147.308 44.8175 146.574 44.8271 145.624 44.8267L144.502 44.6877C144.52 44.6565 144.356 44.6138 144.397 44.5966C144.682 44.4365 144.997 44.28 145.321 44.1079C144.803 44.015 144.355 43.9028 144.028 43.7842C143.7 43.6656 143.506 43.5454 143.468 43.4373C143.44 43.4047 143.448 43.375 143.49 43.3503C143.532 43.3256 143.607 43.3065 143.711 43.2943C144.007 43.2734 144.235 43.2335 144.378 43.1776C144.521 43.1218 144.575 43.0514 144.536 42.9721L143.664 42.6798C141.037 42.4712 138.458 42.3222 135.974 42.2355L133.731 42.1699C133.461 42.0917 133.544 42.0574 133.799 42.0555C134.054 42.0535 134.77 42.0752 135.27 42.0868C135.701 42.1022 136.085 42.0921 136.383 42.0576C136.681 42.0231 136.883 41.9653 136.971 41.8899L136.218 41.5565C136.255 41.4941 136.307 41.4056 136.715 41.4115C136.995 41.4043 137.2 41.3729 137.299 41.3223C137.398 41.2718 137.385 41.205 137.261 41.1329C137.242 41.0807 137.27 41.0331 137.344 40.9924C137.948 40.989 138.549 40.9909 139.097 40.975C139.353 40.9697 139.568 40.9504 139.729 40.9183C139.89 40.8863 139.993 40.8422 140.031 40.7891C140.051 40.7374 140.003 40.6784 139.891 40.6169C139.778 40.5555 139.605 40.4934 139.385 40.4355C138.526 40.3639 137.741 40.363 137.2 40.4329C137.008 40.4877 136.699 40.5177 136.313 40.5188C135.928 40.5199 135.485 40.4922 135.042 40.4392C134.535 40.3782 134.029 40.3514 133.615 40.3636C133.202 40.3758 132.907 40.4262 132.784 40.5059C132.264 40.4749 131.803 40.4513 131.348 40.4173C130.811 40.3743 130.303 40.3617 129.88 40.3807C129.203 40.3941 128.473 40.3862 127.708 40.3573C125.501 40.285 123.291 40.2179 121.154 40.1878C120.588 40.1792 120.099 40.2024 119.54 40.1834C118.981 40.1644 118.539 40.2157 117.84 40.1124C117.706 40.0963 117.572 40.086 117.448 40.0822C117.324 40.0784 117.213 40.0813 117.124 40.0907C115.896 40.1724 114.456 40.184 112.889 40.1246C110.743 40.1101 108.518 40.069 106.368 40.0597C105.738 40.0677 105.142 40.0892 104.588 40.124C104.165 40.1449 103.723 40.1592 103.263 40.1665C102.911 40.1731 102.574 40.1537 102.633 40.2672C102.693 40.3807 102.164 40.3097 101.86 40.2887C100.814 40.2337 99.7449 40.1592 98.6647 40.0661C97.6004 39.9649 96.5576 39.906 95.5986 39.8929C94.906 39.8853 94.1918 39.9142 93.3014 39.7592C93.3353 39.702 93.3692 39.6447 93.563 39.585C92.8369 39.4206 92.0083 39.2791 91.1459 39.1723C90.2835 39.0655 89.4121 38.9964 88.6037 38.9708L87.4889 38.6596C87.2145 38.623 86.9342 38.5964 86.6653 38.5814C86.3964 38.5663 86.1445 38.5631 85.9248 38.572C85.755 38.5765 85.5481 38.5649 85.342 38.5394C85.136 38.5139 84.9446 38.4761 84.803 38.433C84.5913 38.3782 84.3328 38.331 84.0597 38.2972C83.7867 38.2633 83.5112 38.2445 83.268 38.2429C82.502 38.2091 81.6844 38.1309 80.8989 38.0165C80.695 37.9494 80.5673 37.8801 80.5314 37.8171C80.4955 37.7541 80.5532 37.7002 80.6971 37.662C80.9291 37.5946 81.0594 37.5087 81.0801 37.4095C81.1007 37.3103 81.0113 37.1999 80.8172 37.085C80.7179 37.0144 80.6846 36.9476 80.7196 36.8886C80.7546 36.8296 80.857 36.7796 81.0207 36.7417C81.6318 36.5661 81.4683 36.4676 80.4686 36.1763C80.3062 36.1277 80.1104 36.0823 79.8937 36.043C79.677 36.0036 79.4441 35.9712 79.2098 35.9478C78.6599 35.9003 78.1176 35.865 77.5928 35.8424C77.2976 35.8059 76.9948 35.8354 76.6547 35.8212C74.954 35.7502 74.7051 35.6356 74.1543 35.3887L73.7529 35.2105C73.0084 35.0662 72.1943 34.9463 71.369 34.8596C70.5437 34.7728 69.728 34.7213 68.9804 34.7088C68.6833 34.7078 68.3417 34.6832 68.008 34.6386C66.922 34.5023 65.8222 34.4079 64.7815 34.3618C64.1329 34.3359 63.4339 34.2687 62.7682 34.1685C62.1025 34.0682 61.4985 33.939 61.0289 33.7965C60.607 33.6682 60.055 33.553 59.4497 33.4669C58.7413 33.3792 58.6756 33.2761 59.0713 33.1967C59.4669 33.1173 60.1295 33.0151 60.7177 32.9315C60.9224 32.9032 61.0492 32.857 61.084 32.7982C61.1189 32.7394 61.0604 32.6703 60.915 32.5986C60.8217 32.4759 60.8055 32.3594 60.8669 32.252C60.8997 32.2074 60.8771 32.1562 60.8005 32.102C60.724 32.0477 60.5953 31.9916 60.4232 31.9375C60.2511 31.8834 60.0395 31.8325 59.8028 31.7882C59.566 31.7439 59.3095 31.7073 59.0507 31.6808C57.9585 31.5456 56.8957 31.4139 55.7819 31.3151C55.3151 31.2685 54.8488 31.2107 54.3944 31.1432C53.4643 30.9763 52.4693 30.8379 51.4671 30.736C50.9914 30.6905 50.5264 30.6108 50.1727 30.5143C49.0568 30.2542 48.0287 29.9808 47.1068 29.699C46.8846 29.6116 46.5939 29.5263 46.2529 29.4485C45.9118 29.3707 45.5278 29.3021 45.125 29.2469C44.8003 29.2067 44.5359 29.1181 44.2857 29.0592C44.1038 28.9228 44.0843 28.7965 44.2292 28.6924C44.3741 28.5882 44.6785 28.5096 45.1138 28.4638C45.5267 28.4088 45.913 28.345 46.2699 28.2775C46.7001 28.2229 47.2115 28.1901 47.7851 28.1804C48.4645 28.1511 48.9668 28.0673 49.2267 27.9401C47.3669 27.7097 45.5983 27.379 43.9682 27.4563L42.7296 27.2471C42.7789 27.1638 42.8221 27.091 42.8621 27.0234C43.1567 26.9003 43.2487 26.745 43.1304 26.5708C43.0328 26.4865 43.0416 26.4098 43.1559 26.3484C43.2701 26.2871 43.4858 26.2433 43.7811 26.2214C45.5302 25.9969 47.5529 25.8453 49.1932 25.5906C49.7075 25.5428 50.3095 25.5211 50.974 25.5264C51.6168 25.511 51.5899 25.396 50.8501 25.2541C50.4349 25.18 50.0117 25.109 49.5821 25.0413C47.6875 25.03 46.9157 25.37 44.7538 25.2753L43.7517 24.8273C43.4807 24.8204 43.2177 24.8177 42.9644 24.8191L39.3393 25.0012C39.0373 25.0103 38.8023 25.0414 38.6609 25.091C38.5194 25.1406 38.4773 25.2067 38.5392 25.2818C38.5637 25.3736 38.5138 25.4579 38.3912 25.5315C38.3121 25.5831 38.3627 25.6515 38.5318 25.722C38.913 25.8809 38.4239 25.9041 38.1151 25.944C38.0361 25.9479 37.9451 25.9475 37.8473 25.9428C37.7494 25.9381 37.6467 25.9292 37.5451 25.9166C37.4435 25.904 37.345 25.888 37.2554 25.8695C37.1657 25.851 37.0867 25.8303 37.0229 25.8088C36.4787 25.6576 36.0028 25.4982 35.4679 25.3314C35.8476 25.1718 35.4008 24.9099 35.9934 24.7655C36.0597 24.7366 36.0862 24.7015 36.0713 24.6622C36.0565 24.6229 36.0005 24.5803 35.907 24.537C35.6657 24.4252 35.5508 24.3162 35.5738 24.221C35.5968 24.1258 35.757 24.0478 36.0382 23.9948L36.0721 23.9376C35.3305 23.7452 35.527 23.5741 35.2358 23.3705L34.5224 23.2375C32.7477 22.9172 32.7446 22.9224 31.2166 22.9342C30.9086 22.8123 31.2999 22.7937 31.5934 22.7798L34.0509 22.643C35.6578 22.5517 37.3113 22.4884 39.1062 22.4539C40.9012 22.4193 42.9023 22.3042 44.7576 22.2212C44.8514 22.2148 44.9231 22.2021 44.9668 22.1842C45.0105 22.1663 45.0248 22.1437 45.0087 22.1183C44.9349 22.0909 44.8384 22.0644 44.7262 22.0408C44.614 22.0173 44.4891 21.9972 44.3605 21.9822C43.7701 21.9091 43.1643 21.862 42.5352 21.8008L41.3623 21.6946L41.0014 21.555C40.7666 21.4701 40.6061 21.3664 40.2937 21.3054C40.0363 21.2599 39.7569 21.2253 39.4845 21.2054C39.2121 21.1854 38.9568 21.1807 38.7451 21.1918C38.1583 21.2196 37.6273 21.26 37.0669 21.2967C36.5065 21.3333 36.1976 21.3733 35.7117 21.3913C34.7243 21.3994 33.7701 21.4211 32.8532 21.456C32.0809 21.5388 31.3665 21.6368 30.7146 21.7496C30.308 21.7941 29.9277 21.8476 29.2333 21.7895C28.9039 21.7368 28.6198 21.6676 28.4313 21.5942C28.2428 21.5208 28.1621 21.4478 28.2036 21.3883C28.2408 21.3417 28.3463 21.3048 28.5101 21.2811C28.6738 21.2574 28.8904 21.2477 29.1394 21.2529C29.8364 21.2444 30.4809 21.2155 31.0599 21.1669C31.8659 21.0789 32.8471 21.041 33.9462 21.0553C34.3189 21.068 34.5687 21.0207 34.8948 21.0053C35.2208 20.9898 35.497 20.9514 35.8605 20.9797C36.9898 21.0526 37.5312 20.9409 38.2079 20.8684C38.437 20.8362 38.579 20.7843 38.6181 20.7182C38.6573 20.6521 38.5922 20.5744 38.4299 20.4938C38.1176 20.3333 37.7355 20.1718 37.2897 20.012C37.0602 19.9334 36.7662 19.8588 36.4308 19.794C36.0953 19.7292 35.7275 19.676 35.3562 19.6385C35.134 19.5402 35.0155 19.4435 35.0113 19.3571C35.0071 19.2708 35.1175 19.1976 35.3324 19.1441C35.88 19.0221 36.3655 18.8979 37.5926 18.9662C38.1695 18.9922 38.7124 18.9972 39.1998 18.9809C40.2808 18.9587 41.5278 19.0074 42.8232 19.1226C43.1584 19.1521 43.4878 19.1722 43.8018 19.1824C46.0414 19.2531 48.1751 19.2884 50.315 19.3134C51.4487 19.3253 52.5916 19.3217 53.775 19.3566C56.5503 19.4323 59.0766 19.3934 61.7554 19.418C63.1584 19.4307 64.4141 19.3797 65.4568 19.2678C65.6599 19.2302 65.8343 19.1864 65.978 19.1369C65.287 19.0068 64.528 18.9038 63.7738 18.8378C63.0195 18.7717 62.2952 18.7448 61.6703 18.7597C61.3267 18.7961 60.8827 18.8028 60.3876 18.7789C59.8926 18.7551 59.3661 18.7017 58.8668 18.6247L60.3185 18.5811C61.2812 18.5607 62.2672 18.5544 63.2035 18.5252C64.6909 18.4749 66.0694 18.3943 67.6097 18.3617C68.8533 18.3318 69.9661 18.2551 70.9132 18.1343C71.5975 18.0461 72.3789 17.9836 73.2417 17.948C73.855 17.9291 73.855 17.9291 74.2471 17.7487C73.936 17.632 73.5338 17.6157 73.1549 17.6134C70.8832 17.54 68.7214 17.5271 66.7135 17.5751C65.7003 17.5793 64.8016 17.6288 64.0603 17.7211C63.8787 17.76 63.4143 17.7416 63.0416 17.729C61.8731 17.7097 60.7563 17.7153 59.7046 17.7456C58.2505 17.7962 56.6311 17.7842 54.9092 17.7101C54.5827 17.6194 54.9585 17.6269 54.977 17.5957C56.3107 17.5375 57.6179 17.4704 58.978 17.4211C59.3498 17.4035 59.7472 17.3948 60.1658 17.3951C61.7285 17.4257 63.0308 17.341 63.8901 17.1528C63.9332 17.0799 64.4985 17.0885 64.7483 17.0413C64.8712 17.0004 64.9531 16.9523 64.9915 16.8983C64.6275 16.7639 64.216 16.7632 63.8992 16.763C62.98 16.778 62.0957 16.8065 61.2505 16.8482C60.4648 16.8879 59.5952 16.8985 58.665 16.8798C57.9786 16.8618 57.3918 16.8896 56.6992 16.882C56.3235 16.866 55.9346 16.8403 55.5404 16.8055C55.9793 16.7118 56.5759 16.6542 57.2882 16.6367C57.8284 16.5807 58.5038 16.5638 58.5901 16.4182C58.335 16.314 58.0508 16.3123 57.8226 16.3231C57.3475 16.3227 56.8886 16.3293 56.4484 16.3428C55.5148 16.3724 54.5041 16.3728 53.4374 16.344C52.8757 16.3332 52.3426 16.3365 51.8473 16.3537C50.7247 16.3766 49.6488 16.4276 48.6209 16.4511C46.5153 16.4751 44.5949 16.5611 42.5717 16.6065C42.1214 16.6177 41.7178 16.6571 41.1243 16.5892C40.5308 16.5212 40.5044 16.5124 40.4343 16.4702C40.2682 16.3998 40.2179 16.3316 40.2938 16.2797C40.4115 16.2312 40.6408 16.2042 40.9409 16.2035C42.7495 16.1263 44.4649 16.018 46.0764 15.8791C46.7856 15.8512 47.407 15.7945 47.9189 15.7108C48.3249 15.6531 48.8065 15.615 49.3486 15.5975C50.137 15.5558 50.9589 15.5253 51.811 15.506C52.2075 15.4956 52.5446 15.4647 52.8026 15.4152C53.0605 15.3656 53.234 15.2983 53.3129 15.2173L52.2683 14.9484C52.1042 14.9358 51.9414 14.925 51.7806 14.9159L43.1102 15.1096L42.2515 15.115C41.3104 15.0989 41.0804 15.0593 40.1877 14.7477C42.225 14.6744 43.8265 14.4607 44.8328 14.128C44.591 14.0922 44.343 14.0615 44.0948 14.0366C42.4666 13.9579 40.9276 13.9369 39.5368 13.9746C38.7107 13.9784 37.8613 13.9681 37.0088 13.9631C37.2581 13.8097 38.2133 13.8554 38.8358 13.8208C40.3233 13.7667 41.6387 13.6549 42.7399 13.489C43.1195 13.4244 43.5945 13.383 44.1431 13.3669C44.692 13.3613 45.1506 13.3222 45.4789 13.2528C45.8071 13.1835 45.9951 13.0861 46.0265 12.9691C46.0782 12.8632 46.1897 12.7647 46.3591 12.6753C46.0593 12.5483 45.5831 12.4267 45.0201 12.3333C44.457 12.24 43.8457 12.1812 43.3009 12.1681C42.1379 12.1158 40.9316 12.0302 39.7127 11.9135C39.1056 11.8547 38.5102 11.8209 37.9653 11.8144C37.4848 11.8094 36.9386 11.7668 36.4101 11.6933C35.8815 11.6198 35.3997 11.5193 35.038 11.4071C34.5498 11.2685 34.0941 11.1283 33.6385 10.9881C33.1829 10.8479 32.6542 10.6708 32.1224 10.4988C31.6535 10.4719 31.1969 10.4546 30.7588 10.4472C30.4179 10.4535 30.0202 10.4347 29.6125 10.3931C29.2048 10.3515 28.8042 10.2889 28.4579 10.2125C28.661 10.1371 28.8906 10.0706 29.1325 9.98328C28.8005 9.86799 28.5598 9.75041 28.425 9.63772C28.2902 9.52502 28.2642 9.41956 28.3486 9.32778C28.3979 9.24454 28.037 9.10491 27.9123 8.99454C27.7517 8.89938 27.7216 8.81059 27.8258 8.73978C27.9299 8.66898 28.1636 8.61948 28.496 8.59777C28.9084 8.5577 29.244 8.49736 29.4891 8.41922C29.5701 8.39893 29.6114 8.37115 29.6091 8.33842C29.6068 8.30568 29.561 8.26904 29.4759 8.23183C29.3908 8.19463 29.269 8.15805 29.1219 8.12545C28.9747 8.09284 28.8067 8.06525 28.6334 8.0452C28.1024 7.98835 27.575 7.9515 27.0816 7.93677C26.2315 7.90966 25.4178 7.89264 24.6403 7.88569C23.7804 7.87524 22.8238 7.8107 21.8676 7.69864C21.0115 7.59262 20.244 7.49755 19.8254 7.29494C19.4068 7.09232 18.7375 7.09878 18.2229 6.95128C18.512 6.81831 19.0258 6.72594 19.7125 6.68345C20.1619 6.66829 20.537 6.62849 20.8138 6.5666C21.0905 6.50472 21.2629 6.42211 21.3197 6.3241L19.7573 5.9128C18.5095 5.71917 17.8192 5.8682 16.4709 5.79057L17.8601 5.63874C17.888 5.62374 17.8984 5.60611 17.8909 5.58672C17.756 5.27964 17.5415 5.21397 16.1214 5.04368L15.3244 4.94496L14.0629 4.82782C13.8609 4.76488 13.7212 4.69926 13.6577 4.6375C13.5942 4.57574 13.6092 4.52001 13.7012 4.47589C13.886 4.40168 13.9422 4.30687 13.8646 4.20016C13.7422 4.12948 13.7321 4.06432 13.836 4.01598C13.9399 3.96765 14.1512 3.93919 14.4333 3.93556C14.6585 3.92994 14.6752 3.84825 14.7977 3.80199C14.9194 3.73823 15.1277 3.68931 15.4083 3.65855C15.689 3.62779 16.0355 3.6159 16.4242 3.62372C17.5704 3.6301 18.6471 3.60617 19.6352 3.55235L19.4581 3.53041C20.4881 3.57766 21.451 3.58339 22.2999 3.54733C23.1507 3.50192 24.2425 3.53105 25.1461 3.50336C25.8818 3.50972 26.4419 3.44688 26.7075 3.32819C26.9648 3.21487 27.8997 3.24132 28.6157 3.26298C29.0398 3.27699 29.4497 3.28293 29.841 3.28072C30.3663 3.25507 31.023 3.27925 31.7017 3.34923C31.9053 3.37073 32.1059 3.38212 32.2841 3.38228C34.0095 3.41169 35.7317 3.4463 37.4337 3.46165C37.8266 3.45281 38.2872 3.47306 38.7616 3.52002C38.961 3.54041 39.1551 3.54886 39.3177 3.54422C42.0071 3.49758 45.0418 3.61658 47.6783 3.55222C47.9978 3.53702 48.3516 3.53386 48.7296 3.54282C49.5789 3.58063 50.3165 3.5563 50.8303 3.47353C51.1075 3.42951 51.4629 3.40525 51.8738 3.40231C52.2848 3.39936 52.7422 3.41779 53.2169 3.45642C54.007 3.50757 54.7372 3.51311 55.3304 3.47247C56.4871 3.43493 57.7036 3.41949 58.9701 3.42628C59.3582 3.43285 59.6994 3.41825 59.9672 3.38364C60.235 3.34902 60.4222 3.29529 60.5143 3.22664C60.2032 3.10993 59.8631 3.09573 59.5402 3.10599C58.2885 3.07939 57.0398 3.0476 55.8115 3.03507C54.712 2.99927 53.6571 2.98833 52.6621 3.0024C52.1681 3.01827 51.5517 2.98207 50.9474 2.9017C50.2067 2.79991 49.4438 2.74933 48.8131 2.76021C48.3454 2.76291 47.8518 2.75415 47.3393 2.73404C47.0113 2.70979 46.6751 2.66815 46.3652 2.61339C46.2422 2.58961 46.1083 2.56961 45.9722 2.55468C45.836 2.53975 45.7006 2.53022 45.5745 2.52668C45.4484 2.52315 45.3343 2.52569 45.2396 2.53415C45.145 2.54261 45.0719 2.55681 45.0249 2.57583C44.5504 2.73485 43.4894 2.6537 42.581 2.63611C41.2195 2.36697 40.2062 2.52627 38.9338 2.37426C38.8332 2.36418 38.734 2.35807 38.6424 2.35633C38.5508 2.35459 38.4687 2.35724 38.401 2.36412C35.9386 2.45561 33.0686 2.37936 30.4833 2.41096C30.1981 2.41558 29.8672 2.39974 29.5281 2.36525C27.3117 2.13696 25.1808 2.07215 23.5518 2.18349C23.3536 2.19352 23.1282 2.19395 22.8857 2.18475C21.772 2.09402 20.707 2.05785 19.7795 2.07925C18.326 2.07234 16.9285 2.07794 15.4516 2.05697C14.4336 2.02713 13.5405 2.05901 12.8618 2.14944C12.8402 2.18586 12.3882 2.14662 12.0419 2.14282C11.8427 2.05114 11.67 1.96833 11.4647 1.88706C11.2811 1.78651 11.0062 1.68476 10.6585 1.58871C10.3109 1.49267 9.89874 1.40457 9.44981 1.33038C8.68228 1.23532 8.60552 1.09738 9.14259 1.04663C10.5269 0.878722 12.2676 0.810001 14.2367 0.845506C15.8827 0.848343 17.5583 0.854844 19.2277 0.871743C20.2014 0.88624 21.2279 0.918441 22.1752 0.92408C22.4948 0.936468 22.8232 0.954726 23.1568 0.978654C23.5662 1.01335 23.9637 1.03225 24.3279 1.03435C25.4974 1.00513 26.8024 1.03059 28.1809 1.1095C28.6859 1.12671 29.1707 1.1325 29.6283 1.12681C30.7107 1.10539 31.8842 1.12115 33.1177 1.17368C33.8844 1.2033 34.6277 1.21879 35.3401 1.21998C35.5917 1.22322 35.7965 1.19834 36.0389 1.21718C38.1718 1.41434 39.6821 1.27193 41.6018 1.34775C42.5348 1.36889 43.4261 1.36895 44.2633 1.34793C45.8972 1.34894 47.5767 1.37056 49.2949 1.41268C51.567 1.4819 53.6726 1.45788 55.842 1.48646C56.2703 1.49246 56.6839 1.49144 57.0797 1.48339C59.005 1.4302 61.0961 1.44148 63.3021 1.51695C63.8031 1.52785 64.2529 1.51452 64.6236 1.4778C64.9944 1.44108 65.2779 1.38175 65.4565 1.30354C65.5321 1.24986 65.4831 1.18014 65.3191 1.10782C65.0468 1.01547 64.7393 0.924983 64.4017 0.837853L52.1219 0.54548C51.6062 0.530212 51.1032 0.521994 50.6156 0.520858C49.1815 0.518315 47.7032 0.49557 46.1881 0.452735C44.691 0.4125 43.2608 0.419643 41.8104 0.407528C41.3832 0.403471 40.9446 0.393895 40.4966 0.378831C37.4682 0.259608 34.5151 0.186788 31.6583 0.160894C30.4564 0.157219 29.1579 0.102503 27.9326 0.0847674C26.7074 0.0670318 25.0318 0.0605384 23.5783 0.0536262L19.0782 0.0546878C18.193 0.0511593 17.3312 0.0616886 16.4725 0.0670177C15.4304 -0.313331 15.0713 -0.402482 13.6808 -0.569118C13.2051 -0.630586 12.7212 -0.667269 12.2859 -0.674869C10.9056 -0.644802 9.17356 -0.769965 7.86458 -0.753395C7.07472 -0.761567 6.40449 -0.719316 5.9225 -0.630961C5.5041 -0.561618 5.02565 -0.50675 4.49454 -0.467184C3.03966 -0.792562 2.91144 -1.00389 4.00585 -1.08612C4.30236 -1.10524 4.71078 -1.09933 4.9249 -1.13982C5.04776 -1.16448 5.21559 -1.17858 5.41503 -1.18102C5.61446 -1.18346 5.83999 -1.17417 6.07391 -1.15387C6.81218 -1.10062 7.50416 -1.0881 8.0804 -1.11756C8.62271 -1.15655 9.28747 -1.15499 10.0106 -1.11303C10.5419 -1.04722 11.009 -1.14015 11.4685 -1.167C11.928 -1.19384 12.3051 -1.24207 13.0229 -1.16993C13.1543 -1.15557 13.2848 -1.14694 13.4043 -1.14472C13.5238 -1.1425 13.6292 -1.14675 13.7124 -1.15712C14.4833 -1.20359 15.4032 -1.1987 16.3974 -1.14288C17.9222 -1.08794 19.3529 -1.08588 20.6398 -1.13677C21.4101 -1.18129 22.067 -1.26025 22.5845 -1.37056C22.7256 -1.40745 22.9351 -1.42958 23.193 -1.43481C24.4877 -1.41179 25.8937 -1.32517 27.32 -1.18053C27.8574 -1.12257 28.394 -1.07673 28.9185 -1.04398C29.9965 -0.97122 31.0391 -0.930449 32.0154 -0.922872C33.4341 -0.921671 34.9113 -0.893676 36.4337 -0.839143C37.3732 -0.808777 38.2785 -0.79757 39.1388 -0.805643C40.0231 -0.809448 40.9673 -0.786286 41.9499 -0.736694C42.927 -0.696282 43.7882 -0.719568 44.4295 -0.803729C44.6406 -0.849081 44.8107 -0.902935 44.9366 -0.964287C43.5058 -1.16393 42.0261 -1.26539 40.7954 -1.24824C40.3279 -1.26146 39.9398 -1.24811 39.4472 -1.32587L39.4317 -1.29986C39.3337 -1.28298 39.1858 -1.279 39.0163 -1.28867C38.8467 -1.29835 38.6673 -1.321 38.5123 -1.35232C38.5708 -1.45116 38.6263 -1.5448 38.6664 -1.61243C39.6041 -1.6005 40.5146 -1.60146 41.3933 -1.61533C42.1339 -1.63529 43.1393 -1.46051 43.7804 -1.5263C45.0308 -1.44403 45.8269 -1.55762 46.9482 -1.52484C48.0695 -1.49207 49.3045 -1.38378 50.4258 -1.351C51.4043 -1.33301 52.3543 -1.3291 53.2707 -1.33929C53.587 -1.35359 53.9516 -1.35023 54.3422 -1.32943C54.8913 -1.2903 55.402 -1.28374 55.8157 -1.31051C56.2295 -1.33729 56.5296 -1.39632 56.6817 -1.48083C56.5385 -1.55999 56.3455 -1.66207 56.123 -1.7678C56.5323 -1.85469 57.154 -1.89127 57.8958 -1.87211L58.9441 -1.87631C59.2218 -1.87401 59.4341 -1.8975 59.5371 -1.94191C59.6401 -1.98632 59.6259 -2.04825 59.4974 -2.1149C57.5098 -2.45041 57.4367 -2.4874 55.9779 -2.27159L54.041 -2.37188L54.0737 -2.37342ZM80.2713 -1.45178L80.1237 -1.47005L80.2713 -1.45178ZM321.642 34.2446L321.608 34.3018L321.645 34.2394L321.97 34.2796L321.991 34.2432L321.642 34.2446ZM274.496 9.16244C274.037 9.10001 273.573 9.04261 273.108 8.9906C272.987 8.98254 272.873 8.98072 272.776 8.98529C272.68 8.98987 272.603 9.00071 272.554 9.01688C272.517 9.07931 272.777 9.12262 273.013 9.15188C273.311 9.19124 273.615 9.21626 273.894 9.22435C274.173 9.23243 274.418 9.2233 274.602 9.19788L274.869 9.1751L274.496 9.16244ZM38.0927 24.3777C38.3949 24.3882 38.6815 24.3899 38.9453 24.3828C40.1159 24.3323 41.2367 24.2589 42.4369 24.2121C43.9512 24.0933 45.6912 24.045 47.5918 24.0688C48.3343 24.0805 48.9616 24.042 49.4004 23.9578C49.6631 23.9126 50.0022 23.8862 50.397 23.8802L55.4214 23.743C55.732 23.7145 56.0005 23.6746 56.2206 23.6242C55.7778 23.5694 55.4827 23.5328 55.3055 23.5109C54.938 23.5047 54.6222 23.5214 54.3896 23.5594C54.1397 23.6237 53.7174 23.6491 53.2065 23.6306C52.6908 23.6154 52.1878 23.6072 51.7002 23.606C50.7794 23.6092 49.8523 23.6229 48.9284 23.6313C48.5689 23.8101 47.508 23.729 46.5995 23.7114L45.8976 23.7194C43.6034 23.8121 41.4119 23.9396 39.3338 24.1014C38.9321 24.1288 38.5861 24.1725 38.3064 24.2311C38.201 24.2768 38.1672 24.3338 38.2077 24.3975L38.0602 24.3793L38.0927 24.3777ZM140.542 41.4778C141.099 41.49 141.678 41.515 142.272 41.5525C142.73 41.5908 143.176 41.614 143.594 41.6213C145.934 41.6614 148.372 41.754 150.877 41.8978C151.204 41.9196 151.519 41.9303 151.808 41.9295L153.858 41.8929C154.504 41.8724 154.516 41.8516 154.046 41.5756C153.656 41.522 153.261 41.4732 152.865 41.4294C152.629 41.4001 152.245 41.3526 152.156 41.3973C151.608 41.5193 150.609 41.4403 149.769 41.4144C147.337 41.3477 144.829 41.2493 142.373 41.1685C141.854 41.1488 141.351 41.1388 140.87 41.1387C140.571 41.1346 140.299 41.1423 140.064 41.1617C139.995 41.1637 139.938 41.1695 139.896 41.1787C139.853 41.1879 139.827 41.2003 139.818 41.215C139.809 41.2298 139.818 41.2466 139.845 41.2643C139.871 41.282 139.914 41.3003 139.971 41.3178C140.172 41.3793 140.405 41.4381 140.66 41.4924L140.542 41.4778ZM158.358 1.41803L160.754 1.3853C161.041 1.38179 161.285 1.34496 161.593 1.36071C163.233 1.41063 164.752 1.39673 166.085 1.31958C166.539 1.2881 167.07 1.28181 167.648 1.30105C169.421 1.35805 171.093 1.3604 172.619 1.30802C173.606 1.2975 174.529 1.26219 175.375 1.20261C175.44 1.18878 175.481 1.17 175.494 1.14756C175.507 1.12511 175.493 1.09953 175.452 1.07255C175.441 1.05551 175.413 1.03718 175.367 1.01882C175.322 1.00046 175.261 0.9825 175.19 0.966196C175.118 0.94989 175.037 0.935624 174.952 0.924369C174.867 0.913111 174.781 0.905134 174.698 0.900995C173.629 0.820344 172.614 0.792246 171.737 0.818986C170.923 0.850979 170.047 0.86034 169.122 0.846922C168.237 0.843395 167.636 0.947711 166.543 0.868112C166.08 0.841902 165.672 0.850532 165.387 0.892557C164.814 0.962213 164.015 0.966087 163.131 0.90349C162.602 0.871809 162.097 0.858223 161.634 0.863251C160.511 0.886151 159.438 0.931971 158.398 0.976246C158.07 0.986486 157.719 0.9879 157.35 0.980454L152.141 0.893758C150.89 0.867166 149.641 0.835369 148.413 0.822837C147.408 0.795623 146.473 0.804146 145.641 0.848105C144.754 0.894306 143.786 0.913063 142.756 0.904021C141.157 0.929304 139.567 0.938976 137.826 0.935575C136.715 0.937666 135.579 0.930904 134.419 0.910077C133.832 0.883272 133.334 0.905101 133.02 0.971362C132.829 1.02591 132.38 0.981471 132.007 0.968812C130.019 0.846791 128.155 0.817879 126.544 0.884087C126.338 0.894877 126.113 0.898783 125.872 0.895738C124.32 0.893465 122.713 0.878676 121.224 0.878512C120.832 0.883655 120.463 0.897772 120.122 0.92068C120.158 0.958052 120.262 0.998559 120.413 1.0338C120.563 1.06904 120.747 1.09631 120.928 1.10995C122.337 1.21436 123.697 1.26952 124.951 1.2731C127.039 1.2598 129.226 1.28971 131.489 1.36249C133.245 1.43588 134.846 1.42043 136.174 1.31729C137.211 1.24034 138.561 1.26929 139.991 1.39918C140.603 1.46122 141.197 1.48602 141.692 1.47021C142.168 1.44946 142.714 1.4545 143.299 1.485C144.532 1.54301 145.717 1.56992 146.832 1.56521C147.922 1.54385 148.939 1.48551 150.058 1.46781C151.178 1.45012 152.883 1.46026 154.263 1.43019C155.644 1.40012 157.009 1.39607 158.358 1.41803ZM59.0802 -1.62491C59.2067 -1.46405 59.6544 -1.36393 60.136 -1.32104C61.7963 -1.13059 63.4377 -1.04955 64.7846 -1.09151C65.5122 -1.15005 66.4822 -1.12751 67.5039 -1.02834C68.6937 -0.92525 69.8057 -0.908152 70.644 -0.980063C70.8494 -0.992629 71.0067 -1.01919 71.1018 -1.05739C71.1203 -1.0886 71.1542 -1.14582 71.1604 -1.15623C71.0723 -1.18262 70.9643 -1.20707 70.8446 -1.22769C70.725 -1.24832 70.597 -1.26457 70.4704 -1.27519L64.971 -1.45932L64.0126 -1.49984C62.2622 -1.606 60.5942 -1.64828 59.0802 -1.62491ZM69.8976 0.921035C70.756 1.1837 70.7589 1.17848 71.1987 1.23853C73.32 1.48793 75.4399 1.62257 77.3062 1.62641C77.7209 1.62564 78.073 1.60029 78.3324 1.55247C78.4659 1.54599 78.5508 1.5254 78.5687 1.49519C78.5866 1.46498 78.536 1.4276 78.428 1.3912L77.7455 1.20616C76.5059 1.12605 75.2842 1.06239 74.0876 1.01558C72.6945 0.960303 71.4599 0.95817 70.0157 0.935652L69.8976 0.921035ZM140.439 40.3147C141.239 40.6762 141.242 40.671 142.581 40.7643C143.514 40.8304 144.419 40.8691 145.269 40.8795C146.308 40.8909 147.374 40.9112 148.41 40.9278C148.662 40.9393 148.877 40.9297 149.011 40.9009C149.145 40.8721 149.19 40.8262 149.136 40.772C149 40.7132 148.787 40.6562 148.532 40.6105C148.278 40.5647 147.996 40.5329 147.732 40.52L147.167 40.5114C146.481 40.4934 145.768 40.4665 145.105 40.4626C144.674 40.4776 144.176 40.466 143.648 40.4287C143.121 40.3915 142.578 40.3296 142.063 40.2478L140.439 40.3147ZM74.1683 -1.15224C74.3818 -1.08964 74.6233 -1.02967 74.8864 -0.973953C75.905 -0.819506 76.9831 -0.731785 77.9094 -0.72799C78.3473 -0.718422 78.7478 -0.752581 79.1937 -0.702943C79.9934 -0.63661 80.7684 -0.601274 81.4769 -0.598852C81.4769 -0.598852 81.6756 -0.613337 81.7408 -0.616428L81.8764 -0.845329C81.541 -0.898356 81.1913 -0.941677 80.8432 -0.973296C79.6752 -1.0342 78.5275 -1.07583 77.3828 -1.12267C76.2381 -1.16951 75.839 -1.19102 75.0904 -1.21114C74.7565 -1.20008 74.4476 -1.18035 74.1683 -1.15224ZM48.8745 27.3045L50.403 27.7731C50.8976 27.8138 51.3597 27.8211 51.7189 27.7941C52.0782 27.767 52.3149 27.7069 52.393 27.6231C52.5189 27.5838 52.5315 27.5257 52.4282 27.4608C52.3248 27.396 52.1136 27.3294 51.8388 27.2752C51.5742 27.2109 51.2722 27.1533 50.9515 27.1059C50.6307 27.0585 50.2981 27.0223 49.9742 26.9996L48.8745 27.3045ZM61.6009 24.9718C60.6011 24.8924 59.645 24.8599 58.8053 24.8769C58.2764 24.9234 57.5596 24.9085 56.802 24.8354C55.4243 24.6896 54.0962 24.6493 53.098 24.7229C53.098 24.7229 53.0609 24.7853 52.8917 24.8034C52.7225 24.8215 53.3936 24.8656 53.5412 24.8838C54.6237 24.9286 55.7124 24.9629 56.6535 24.9789C57.2378 24.9782 57.8558 24.993 58.4969 25.023C59.3791 25.0692 60.2156 25.0842 60.974 25.0673C60.974 25.0673 61.2674 25.0534 61.5978 24.977L61.6009 24.9718ZM168.367 0.569215C167.89 0.480981 167.372 0.409267 166.853 0.359462C166.334 0.309656 165.826 0.283051 165.369 0.281636C165.019 0.27703 164.736 0.300328 164.564 0.347841C164.392 0.395355 164.342 0.464376 164.421 0.543987C164.776 0.587861 165.248 0.646358 165.514 0.679264C166.434 0.676042 167.22 0.633734 168.367 0.569215ZM257.754 8.00473C257.371 7.9337 256.949 7.8794 256.536 7.84801C256.123 7.81663 255.736 7.80944 255.419 7.82726C255.256 7.83499 255.367 7.9157 255.339 7.96252C255.321 7.97314 255.321 7.98634 255.34 8.00075C255.358 8.01515 255.395 8.03024 255.444 8.04442C255.494 8.05859 255.556 8.07134 255.624 8.08132C255.691 8.0913 255.761 8.09816 255.827 8.10116C256.243 8.13176 256.635 8.14087 256.969 8.12767C257.304 8.11448 257.569 8.07939 257.742 8.02554L257.754 8.00473ZM263.743 9.02012C263.684 8.97821 263.558 8.93453 263.388 8.89708C263.218 8.85963 263.016 8.83092 262.818 8.81624C262.469 8.81426 262.152 8.82589 261.879 8.85067C261.582 8.86978 261.796 8.99113 262.197 9.06313C262.367 9.09203 262.548 9.11457 262.727 9.12896C262.905 9.14335 263.076 9.1492 263.226 9.14603C263.375 9.14287 263.499 9.13078 263.588 9.11073C263.677 9.09068 263.728 9.06321 263.737 9.03053L263.743 9.02012ZM89.7158 -0.706432C88.8223 -0.856189 88.1346 -0.818514 87.3781 -0.878705C86.6216 -0.938895 86.4352 -0.945228 86.5365 -0.848912C86.6379 -0.752597 87.1565 -0.772131 87.4812 -0.731913C87.92 -0.678547 88.3613 -0.647904 88.756 -0.643403C89.1506 -0.638903 89.483 -0.660726 89.7158 -0.706432ZM275.911 24.6327C275.437 24.5991 274.974 24.5753 274.527 24.5618C274.468 24.5757 274.431 24.5939 274.419 24.6154C274.406 24.6368 274.418 24.661 274.453 24.6866C274.453 24.6866 274.756 24.7633 274.933 24.7852C275.586 24.8604 275.618 24.7527 275.911 24.6327ZM342.803 38.5854C343.123 38.6865 343.273 38.7552 343.529 38.8037C343.647 38.8206 343.769 38.8328 343.885 38.8395C344.002 38.8462 344.111 38.8473 344.203 38.8425C344.316 38.8134 344.342 38.7688 344.277 38.7177C344.277 38.7177 343.951 38.627 343.827 38.6228C343.472 38.6014 343.129 38.5888 342.803 38.5854ZM74.5066 -1.56266C73.8276 -1.64675 73.1781 -1.72719 72.708 -1.62906C73.7862 -1.52345 73.7862 -1.52344 74.5066 -1.56266ZM85.5034 -0.602733C84.8178 -0.782574 84.4155 -0.798895 84.0864 -0.778232C84.0165 -0.773026 83.9702 -0.761426 83.9546 -0.745192C83.9389 -0.728957 83.9548 -0.708972 83.9998 -0.688254C84.0448 -0.667536 84.1165 -0.647218 84.204 -0.630369C84.2915 -0.613521 84.39 -0.601061 84.4847 -0.594876C84.8423 -0.589699 85.1833 -0.592328 85.5034 -0.602733ZM120.789 -0.526683C120.805 -0.552694 120.823 -0.583908 120.646 -0.605844C120.6 -0.616981 120.545 -0.626557 120.488 -0.633617C120.431 -0.640676 120.374 -0.644966 120.321 -0.646057C120.321 -0.646057 120.303 -0.614842 120.291 -0.594033L120.789 -0.526683ZM145.293 42.6581L144.898 42.6819L145.075 42.7038L145.543 42.717L145.293 42.6581ZM284.137 8.61424C283.989 8.59596 283.841 8.57767 283.82 8.61409C283.789 8.61973 283.769 8.62787 283.764 8.63783C283.758 8.64778 283.765 8.65926 283.786 8.67132C283.786 8.67132 283.993 8.69691 284.081 8.70788L284.137 8.61424ZM261.149 8.90549C261.052 8.9034 260.965 8.90584 260.892 8.91266L260.873 8.94388L261.168 8.98044L261.149 8.90549ZM60.8212 16.3427C60.7072 16.3237 60.5864 16.3088 60.467 16.2988L60.3194 16.2806C60.3194 16.2806 60.478 16.3337 60.5665 16.3447C60.6551 16.3556 60.7265 16.3421 60.8212 16.3427Z" fill="#F4B183"/>
</g>
</svg>
