<svg width="32" height="32" viewBox="0 0 32 32" fill="none" xmlns="http://www.w3.org/2000/svg">
<path d="M12.0399 18.6666C11.5199 17.9066 11.2266 16.9866 11.2266 15.9999C11.2266 13.3599 13.3599 11.2266 15.9999 11.2266C18.6399 11.2266 20.7732 13.3599 20.7732 15.9999C20.7732 18.6399 18.6399 20.7732 15.9999 20.7732" stroke="#292D32" stroke-width="1.5" stroke-linecap="round" stroke-linejoin="round"/>
<path d="M23.4131 7.43932C21.1598 5.83932 18.6265 4.97266 15.9998 4.97266C11.2931 4.97266 6.90646 7.74599 3.85312 12.546C2.65312 14.426 2.65312 17.586 3.85312 19.466C6.90646 24.266 11.2931 27.0393 15.9998 27.0393C20.7065 27.0393 25.0931 24.266 28.1465 19.466C29.3465 17.586 29.3465 14.426 28.1465 12.546" stroke="#292D32" stroke-width="1.5" stroke-linecap="round" stroke-linejoin="round"/>
</svg>
