<svg width="33" height="32" viewBox="0 0 33 32" fill="none" xmlns="http://www.w3.org/2000/svg">
<path d="M11.6227 25.3327H10.9561C5.62272 25.3327 2.95605 23.9993 2.95605 17.3327V10.666C2.95605 5.33268 5.62272 2.66602 10.9561 2.66602H21.6227C26.9561 2.66602 29.6227 5.33268 29.6227 10.666V17.3327C29.6227 22.666 26.9561 25.3327 21.6227 25.3327H20.9561C20.5427 25.3327 20.1427 25.5327 19.8894 25.866L17.8894 28.5327C17.0094 29.706 15.5694 29.706 14.6894 28.5327L12.6894 25.866C12.4761 25.5727 11.9827 25.3327 11.6227 25.3327Z" stroke="#292D32" stroke-width="1.5" stroke-miterlimit="10" stroke-linecap="round" stroke-linejoin="round"/>
<path d="M21.6174 14.6667H21.6293" stroke="#292D32" stroke-width="2" stroke-linecap="round" stroke-linejoin="round"/>
<path d="M16.2834 14.6667H16.2953" stroke="#292D32" stroke-width="2" stroke-linecap="round" stroke-linejoin="round"/>
<path d="M10.9484 14.6667H10.9604" stroke="#292D32" stroke-width="2" stroke-linecap="round" stroke-linejoin="round"/>
</svg>
